<svg width="306.107" height="481.747" viewBox="0 0 229.58 361.31" class="displayed_equation" xmlns="http://www.w3.org/2000/svg">
  <path d="M 123.984375 125.248437 L 2034.414063 125.248437 M 123.984375 188.920312 L 2034.414063 188.920312 M 123.984375 252.592187 L 2034.414063 252.592187 M 123.984375 316.264062 L 2034.414063 316.264062 M 123.984375 379.975 L 2034.414063 379.975 M 123.984375 443.646875 L 2034.414063 443.646875 M 123.984375 507.31875 L 2034.414063 507.31875 M 123.984375 570.990625 L 2034.414063 570.990625 M 123.984375 634.6625 L 2034.414063 634.6625 M 123.984375 698.373437 L 2034.414063 698.373437 M 123.984375 762.045312 L 2034.414063 762.045312 M 123.984375 825.717187 L 2034.414063 825.717187 M 123.984375 889.389062 L 2034.414063 889.389062 M 123.984375 953.1 L 2034.414063 953.1 M 123.984375 1016.771875 L 2034.414063 1016.771875 M 123.984375 1080.44375 L 2034.414063 1080.44375 M 123.984375 1144.115625 L 2034.414063 1144.115625 M 123.984375 1207.7875 L 2034.414063 1207.7875 M 123.984375 1271.498437 L 2034.414063 1271.498437 M 123.984375 1335.170312 L 2034.414063 1335.170312 M 123.984375 1398.842187 L 2034.414063 1398.842187 M 123.984375 1462.514062 L 2034.414063 1462.514062 M 123.984375 1526.225 L 2034.414063 1526.225 M 123.984375 1589.896875 L 2034.414063 1589.896875 M 123.984375 1653.56875 L 2034.414063 1653.56875 M 123.984375 1717.240625 L 2034.414063 1717.240625 M 123.984375 1780.9125 L 2034.414063 1780.9125 M 123.984375 1844.623437 L 2034.414063 1844.623437 M 123.984375 1908.295312 L 2034.414063 1908.295312 M 123.984375 1971.967187 L 2034.414063 1971.967187 M 123.984375 2035.639062 L 2034.414063 2035.639062 M 123.984375 2099.35 L 2034.414063 2099.35 M 123.984375 2163.021875 L 2034.414063 2163.021875 M 123.984375 2226.69375 L 2034.414063 2226.69375 M 123.984375 2290.365625 L 2034.414063 2290.365625 M 123.984375 2354.076562 L 2034.414063 2354.076562 M 123.984375 2417.748437 L 2034.414063 2417.748437 M 123.984375 2481.420312 L 2034.414063 2481.420312 M 123.984375 2545.092187 L 2034.414063 2545.092187 M 123.984375 2608.764062 L 2034.414063 2608.764062 M 123.984375 2672.475 L 2034.414063 2672.475 M 123.984375 2736.146875 L 2034.414063 2736.146875 M 123.984375 2799.81875 L 2034.414063 2799.81875 M 123.984375 2863.490625 L 2034.414063 2863.490625 M 123.984375 2927.1625 L 2034.414063 2927.1625 M 123.984375 2990.873437 L 2034.414063 2990.873437 M 123.984375 3054.545312 L 2034.414063 3054.545312 M 123.984375 3118.217187 L 2034.414063 3118.217187 M 123.984375 3181.928125 L 2034.414063 3181.928125 M 123.984375 3245.6 L 2034.414063 3245.6 M 123.984375 3309.271875 L 2034.414063 3309.271875 M 123.984375 125.209375 L 123.984375 3309.271875 M 187.65625 125.209375 L 187.65625 3309.271875 M 251.367188 125.209375 L 251.367188 3309.271875 M 315.039063 125.209375 L 315.039063 3309.271875 M 378.710938 125.209375 L 378.710938 3309.271875 M 442.382813 125.209375 L 442.382813 3309.271875 M 506.054688 125.209375 L 506.054688 3309.271875 M 569.765625 125.209375 L 569.765625 3309.271875 M 633.4375 125.209375 L 633.4375 3309.271875 M 697.109375 125.209375 L 697.109375 3309.271875 M 760.78125 125.209375 L 760.78125 3309.271875 M 824.492188 125.209375 L 824.492188 3309.271875 M 888.164063 125.209375 L 888.164063 3309.271875 M 951.835938 125.209375 L 951.835938 3309.271875 M 1015.507813 125.209375 L 1015.507813 3309.271875 M 1079.21875 125.209375 L 1079.21875 3309.271875 M 1142.890625 125.209375 L 1142.890625 3309.271875 M 1206.5625 125.209375 L 1206.5625 3309.271875 M 1270.234375 125.209375 L 1270.234375 3309.271875 M 1333.90625 125.209375 L 1333.90625 3309.271875 M 1397.617188 125.209375 L 1397.617188 3309.271875 M 1461.289063 125.209375 L 1461.289063 3309.271875 M 1524.960938 125.209375 L 1524.960938 3309.271875 M 1588.632813 125.209375 L 1588.632813 3309.271875 M 1652.34375 125.209375 L 1652.34375 3309.271875 M 1716.015625 125.209375 L 1716.015625 3309.271875 M 1779.6875 125.209375 L 1779.6875 3309.271875 M 1843.359375 125.209375 L 1843.359375 3309.271875 M 1907.03125 125.209375 L 1907.03125 3309.271875 M 1970.742188 125.209375 L 1970.742188 3309.271875 M 2034.414063 125.209375 L 2034.414063 3309.271875" transform="matrix(.1 0 0 -.1 0 361.31)" fill="none" stroke-width="3.985" stroke-linejoin="round" stroke="#dbdbdc" stroke-miterlimit="10" />
  <path d="M 123.984375 125.209375 L 2034.414063 125.209375 M 123.984375 443.607812 L 2034.414063 443.607812 M 123.984375 762.00625 L 2034.414063 762.00625 M 123.984375 1080.44375 L 2034.414063 1080.44375 M 123.984375 1398.842187 L 2034.414063 1398.842187 M 123.984375 1717.240625 L 2034.414063 1717.240625 M 123.984375 2035.678125 L 2034.414063 2035.678125 M 123.984375 2354.076562 L 2034.414063 2354.076562 M 123.984375 2672.475 L 2034.414063 2672.475 M 123.984375 2990.873437 L 2034.414063 2990.873437 M 123.984375 3309.232812 L 2034.414063 3309.232812 M 123.984375 125.209375 L 123.984375 3309.271875 M 442.382813 125.209375 L 442.382813 3309.271875 M 760.78125 125.209375 L 760.78125 3309.271875 M 1079.21875 125.209375 L 1079.21875 3309.271875 M 1397.617188 125.209375 L 1397.617188 3309.271875 M 1716.015625 125.209375 L 1716.015625 3309.271875 M 2034.375 125.209375 L 2034.375 3309.271875" transform="matrix(.1 0 0 -.1 0 361.31)" fill="none" stroke-width="3.985" stroke-linejoin="round" stroke="#a5a5a6" stroke-miterlimit="10" />
  <path d="M 442.382813 1727.670312 L 442.382813 1706.810937" transform="matrix(.1 0 0 -.1 0 361.31)" fill="none" stroke-width="7.97" stroke-linejoin="round" stroke="#000" stroke-miterlimit="10" />
  <path d="M38.09375 199.5L44.742188 199.5 44.742188 198.742188 38.09375 198.742188zM50.867188 200.246094L50.867188 199.476563 49.726563 199.476563 49.726563 194.816406 49.046875 194.816406 45.644531 199.542969 45.644531 200.246094 48.734375 200.246094 48.734375 202.011719 49.726563 202.011719 49.726563 200.246094zM48.734375 199.476563L46.257813 199.476563 46.257813 199.433594 48.691406 196.03125 48.734375 196.03125 48.734375 199.476563" />
  <path d="M 760.78125 1727.670312 L 760.78125 1706.810937" transform="matrix(.1 0 0 -.1 0 361.31)" fill="none" stroke-width="7.97" stroke-linejoin="round" stroke="#000" stroke-miterlimit="10" />
  <path d="M69.992188 199.5L76.640625 199.5 76.640625 198.742188 69.992188 198.742188zM82.476563 200.226563L82.152344 200.226563C81.898438 200.894531 81.75 201.128906 81.160156 201.128906L79.609375 201.128906 78.828125 201.160156 78.828125 201.105469 80.300781 199.710938C81.484375 198.519531 82.117188 197.75 82.117188 196.753906 82.117188 195.582031 81.238281 194.824219 79.976563 194.824219 78.894531 194.824219 78.136719 195.449219 77.789063 196.53125L78.058594 196.644531C78.472656 195.808594 78.960938 195.550781 79.6875 195.550781 80.546875 195.550781 81.082031 196.085938 81.082031 196.921875 81.082031 198.09375 80.523438 198.796875 79.421875 199.933594L77.722656 201.628906 77.722656 202.011719 82.117188 202.011719 82.476563 200.226563" />
  <path d="M 1397.617188 1727.670312 L 1397.617188 1706.810937" transform="matrix(.1 0 0 -.1 0 361.31)" fill="none" stroke-width="7.97" stroke-linejoin="round" stroke="#000" stroke-miterlimit="10" />
  <path d="M 142.175781 200.226563 L 141.851563 200.226563 C 141.597656 200.894531 141.453125 201.128906 140.859375 201.128906 L 139.308594 201.128906 L 138.527344 201.160156 L 138.527344 201.105469 L 140.003906 199.710938 C 141.183594 198.519531 141.820313 197.75 141.820313 196.753906 C 141.820313 195.582031 140.9375 194.824219 139.679688 194.824219 C 138.59375 194.824219 137.839844 195.449219 137.492188 196.53125 L 137.757813 196.644531 C 138.171875 195.808594 138.664063 195.550781 139.386719 195.550781 C 140.246094 195.550781 140.78125 196.085938 140.78125 196.921875 C 140.78125 198.09375 140.222656 198.796875 139.121094 199.933594 L 137.421875 201.628906 L 137.421875 202.011719 L 141.820313 202.011719 L 142.175781 200.226563" />
  <path d="M 1716.015625 1727.670312 L 1716.015625 1706.810937" transform="matrix(.1 0 0 -.1 0 361.31)" fill="none" stroke-width="7.97" stroke-linejoin="round" stroke="#000" stroke-miterlimit="10" />
  <path d="M 174.164063 200.246094 L 174.164063 199.476563 L 173.027344 199.476563 L 173.027344 194.816406 L 172.347656 194.816406 L 168.945313 199.542969 L 168.945313 200.246094 L 172.035156 200.246094 L 172.035156 202.011719 L 173.027344 202.011719 L 173.027344 200.246094 Z M 172.035156 199.476563 L 169.558594 199.476563 L 169.558594 199.433594 L 171.992188 196.03125 L 172.035156 196.03125 L 172.035156 199.476563" />
  <path d="M 1089.609375 443.607812 L 1068.789063 443.607812" transform="matrix(.1 0 0 -.1 0 361.31)" fill="none" stroke-width="7.97" stroke-linejoin="round" stroke="#000" stroke-miterlimit="10" />
  <path d="M89.792969 318L96.441406 318 96.441406 317.242188 89.792969 317.242188zM102.199219 318.835938C102.199219 317.945313 101.796875 317.410156 100.492188 316.617188L100.492188 316.582031C101.527344 316.015625 101.929688 315.644531 101.929688 314.832031 101.929688 313.949219 101.082031 313.292969 99.976563 313.292969 98.75 313.292969 97.859375 313.925781 97.859375 314.941406 97.859375 315.703125 98.101563 316.160156 99.242188 316.949219L99.242188 316.984375C98.203125 317.675781 97.710938 318.035156 97.710938 318.925781 97.710938 320.0625 98.648438 320.644531 99.945313 320.644531 101.273438 320.644531 102.199219 320.007813 102.199219 318.835938zM101.105469 314.808594C101.105469 315.523438 100.882813 315.957031 100.144531 316.402344 99.152344 315.800781 98.726563 315.402344 98.726563 314.742188 98.726563 314.0625 99.195313 313.660156 99.957031 313.660156 100.671875 313.660156 101.105469 314.074219 101.105469 314.808594zM99.578125 317.164063C100.925781 318.035156 101.261719 318.445313 101.261719 319.160156 101.261719 319.917969 100.679688 320.296875 99.988281 320.296875 99.140625 320.296875 98.582031 319.839844 98.582031 318.835938 98.582031 318.066406 98.941406 317.675781 99.578125 317.164063" />
  <path d="M 1089.609375 762.00625 L 1068.789063 762.00625" transform="matrix(.1 0 0 -.1 0 361.31)" fill="none" stroke-width="7.97" stroke-linejoin="round" stroke="#000" stroke-miterlimit="10" />
  <path d="M89.792969 286.097656L96.441406 286.097656 96.441406 285.339844 89.792969 285.339844zM101.828125 281.402344C99.429688 281.503906 97.703125 283.054688 97.703125 285.742188 97.703125 287.382813 98.425781 288.746094 100.089844 288.746094 101.496094 288.746094 102.296875 287.863281 102.296875 286.347656 102.296875 284.882813 101.507813 284.003906 100.289063 284.003906 99.710938 284.003906 99.296875 284.246094 98.839844 284.695313L98.761719 284.683594C99.039063 283.054688 100.289063 281.960938 101.851563 281.726563zM101.328125 286.433594C101.328125 287.851563 100.882813 288.355469 100.132813 288.355469 99.164063 288.355469 98.707031 287.359375 98.707031 285.976563 98.707031 285.007813 99.308594 284.648438 99.957031 284.648438 100.882813 284.648438 101.328125 285.429688 101.328125 286.433594" />
  <path d="M 1089.609375 1080.44375 L 1068.789063 1080.44375" transform="matrix(.1 0 0 -.1 0 361.31)" fill="none" stroke-width="7.97" stroke-linejoin="round" stroke="#000" stroke-miterlimit="10" />
  <path d="M89.792969 254.398438L96.441406 254.398438 96.441406 253.640625 89.792969 253.640625zM102.566406 255.148438L102.566406 254.378906 101.429688 254.378906 101.429688 249.714844 100.746094 249.714844 97.34375 254.445313 97.34375 255.148438 100.4375 255.148438 100.4375 256.910156 101.429688 256.910156 101.429688 255.148438zM100.4375 254.378906L97.960938 254.378906 97.960938 254.332031 100.390625 250.929688 100.4375 250.929688 100.4375 254.378906" />
  <path d="M 1089.609375 1398.842187 L 1068.789063 1398.842187" transform="matrix(.1 0 0 -.1 0 361.31)" fill="none" stroke-width="7.97" stroke-linejoin="round" stroke="#000" stroke-miterlimit="10" />
  <path d="M89.792969 222.5L96.441406 222.5 96.441406 221.742188 89.792969 221.742188zM102.378906 223.226563L102.054688 223.226563C101.796875 223.894531 101.652344 224.128906 101.058594 224.128906L99.507813 224.128906 98.726563 224.160156 98.726563 224.105469 100.203125 222.710938C101.382813 221.519531 102.019531 220.75 102.019531 219.753906 102.019531 218.582031 101.136719 217.824219 99.878906 217.824219 98.796875 217.824219 98.039063 218.449219 97.691406 219.53125L97.960938 219.644531C98.371094 218.808594 98.863281 218.550781 99.585938 218.550781 100.445313 218.550781 100.980469 219.085938 100.980469 219.921875 100.980469 221.09375 100.421875 221.796875 99.320313 222.933594L97.625 224.628906 97.625 225.011719 102.019531 225.011719 102.378906 223.226563" />
  <path d="M 1089.609375 2035.678125 L 1068.789063 2035.678125" transform="matrix(.1 0 0 -.1 0 361.31)" fill="none" stroke-width="7.97" stroke-linejoin="round" stroke="#000" stroke-miterlimit="10" />
  <path d="M 102.378906 159.527344 L 102.054688 159.527344 C 101.796875 160.195313 101.652344 160.429688 101.058594 160.429688 L 99.507813 160.429688 L 98.726563 160.460938 L 98.726563 160.40625 L 100.203125 159.011719 C 101.382813 157.816406 102.019531 157.050781 102.019531 156.054688 C 102.019531 154.882813 101.136719 154.125 99.878906 154.125 C 98.796875 154.125 98.039063 154.75 97.691406 155.832031 L 97.960938 155.945313 C 98.371094 155.105469 98.863281 154.851563 99.585938 154.851563 C 100.445313 154.851563 100.980469 155.386719 100.980469 156.222656 C 100.980469 157.394531 100.421875 158.097656 99.320313 159.234375 L 97.625 160.929688 L 97.625 161.308594 L 102.019531 161.308594 L 102.378906 159.527344" />
  <path d="M 1089.609375 2354.076562 L 1068.789063 2354.076562" transform="matrix(.1 0 0 -.1 0 361.31)" fill="none" stroke-width="7.97" stroke-linejoin="round" stroke="#000" stroke-miterlimit="10" />
  <path d="M 102.566406 127.746094 L 102.566406 126.976563 L 101.429688 126.976563 L 101.429688 122.316406 L 100.746094 122.316406 L 97.34375 127.042969 L 97.34375 127.746094 L 100.4375 127.746094 L 100.4375 129.511719 L 101.429688 129.511719 L 101.429688 127.746094 Z M 100.4375 126.976563 L 97.960938 126.976563 L 97.960938 126.933594 L 100.390625 123.53125 L 100.4375 123.53125 L 100.4375 126.976563" />
  <path d="M 1089.609375 2672.475 L 1068.789063 2672.475" transform="matrix(.1 0 0 -.1 0 361.31)" fill="none" stroke-width="7.97" stroke-linejoin="round" stroke="#000" stroke-miterlimit="10" />
  <path d="M 101.828125 90.402344 C 99.429688 90.503906 97.703125 92.054688 97.703125 94.742188 C 97.703125 96.382813 98.425781 97.742188 100.089844 97.742188 C 101.496094 97.742188 102.296875 96.863281 102.296875 95.347656 C 102.296875 93.882813 101.507813 93.003906 100.289063 93.003906 C 99.710938 93.003906 99.296875 93.246094 98.839844 93.695313 L 98.761719 93.683594 C 99.039063 92.054688 100.289063 90.960938 101.851563 90.726563 Z M 101.328125 95.433594 C 101.328125 96.851563 100.882813 97.355469 100.132813 97.355469 C 99.164063 97.355469 98.707031 96.359375 98.707031 94.976563 C 98.707031 94.007813 99.308594 93.648438 99.957031 93.648438 C 100.882813 93.648438 101.328125 94.429688 101.328125 95.433594" />
  <path d="M 1089.609375 2990.873437 L 1068.789063 2990.873437" transform="matrix(.1 0 0 -.1 0 361.31)" fill="none" stroke-width="7.97" stroke-linejoin="round" stroke="#000" stroke-miterlimit="10" />
  <path d="M 102.199219 64.136719 C 102.199219 63.242188 101.796875 62.707031 100.492188 61.914063 L 100.492188 61.882813 C 101.527344 61.316406 101.929688 60.945313 101.929688 60.132813 C 101.929688 59.25 101.082031 58.589844 99.976563 58.589844 C 98.75 58.589844 97.859375 59.226563 97.859375 60.242188 C 97.859375 61.003906 98.101563 61.457031 99.242188 62.25 L 99.242188 62.285156 C 98.203125 62.976563 97.710938 63.332031 97.710938 64.226563 C 97.710938 65.363281 98.648438 65.945313 99.945313 65.945313 C 101.273438 65.945313 102.199219 65.308594 102.199219 64.136719 Z M 101.105469 60.109375 C 101.105469 60.820313 100.882813 61.257813 100.144531 61.703125 C 99.152344 61.101563 98.726563 60.699219 98.726563 60.042969 C 98.726563 59.363281 99.195313 58.960938 99.957031 58.960938 C 100.671875 58.960938 101.105469 59.371094 101.105469 60.109375 Z M 99.578125 62.464844 C 100.925781 63.332031 101.261719 63.746094 101.261719 64.460938 C 101.261719 65.21875 100.679688 65.597656 99.988281 65.597656 C 99.140625 65.597656 98.582031 65.140625 98.582031 64.136719 C 98.582031 63.367188 98.941406 62.976563 99.578125 62.464844" />
  <path d="M 173.945313 1717.240625 L 1984.453125 1717.240625" transform="matrix(.1 0 0 -.1 0 361.31)" fill="none" stroke-width="7.97" stroke-linejoin="round" stroke="#000" stroke-miterlimit="10" />
  <path d="M 13.53125 189.585938 L 19 191.648438 L 17.195313 189.585938 L 19 187.519531" />
  <path d="M 135.3125 1717.240625 L 190 1696.615625 L 171.953125 1717.240625 L 190 1737.904687 Z M 135.3125 1717.240625" transform="matrix(.1 0 0 -.1 0 361.31)" fill="none" stroke-width="7.97" stroke="#000" stroke-miterlimit="10" />
  <path d="M 202.308594 189.585938 L 196.839844 187.519531 L 198.644531 189.585938 L 196.839844 191.648438" />
  <path d="M 2023.085938 1717.240625 L 1968.398438 1737.904687 L 1986.445313 1717.240625 L 1968.398438 1696.615625 Z M 2023.085938 1717.240625" transform="matrix(.1 0 0 -.1 0 361.31)" fill="none" stroke-width="7.97" stroke="#000" stroke-miterlimit="10" />
  <path d="M 211.113281 188.886719 L 211.082031 188.886719 L 210.945313 188.316406 C 210.789063 187.714844 210.578125 187.222656 210.3125 186.910156 L 210.144531 186.910156 L 208.59375 187.089844 L 208.59375 187.425781 C 208.59375 187.425781 208.761719 187.390625 208.9375 187.390625 C 209.675781 187.378906 209.863281 187.679688 210.164063 188.617188 L 210.476563 189.632813 L 209.675781 190.804688 C 209.242188 191.429688 209.039063 191.441406 208.996094 191.441406 C 208.804688 191.441406 208.539063 191.296875 208.292969 191.296875 C 208.023438 191.296875 207.855469 191.539063 207.855469 191.761719 C 207.855469 192.042969 208.023438 192.308594 208.503906 192.308594 C 209.171875 192.308594 209.539063 191.785156 209.898438 191.203125 L 210.613281 190.046875 L 210.65625 190.046875 L 210.9375 191.171875 C 211.09375 191.898438 211.339844 192.320313 211.851563 192.320313 C 212.609375 192.320313 213.078125 191.5625 213.402344 191.070313 L 213.167969 190.894531 C 212.867188 191.296875 212.652344 191.519531 212.363281 191.519531 C 212.015625 191.519531 211.796875 191.105469 211.484375 190.078125 L 211.246094 189.320313 L 211.929688 188.238281 C 212.117188 187.925781 212.273438 187.769531 212.53125 187.769531 C 212.675781 187.769531 212.933594 187.882813 213.109375 187.882813 C 213.414063 187.882813 213.625 187.625 213.625 187.355469 C 213.625 187.042969 213.492188 186.867188 213.066406 186.867188 C 212.40625 186.867188 211.964844 187.414063 211.660156 187.949219 L 211.113281 188.886719" />
  <path d="M 1079.21875 175.170312 L 1079.21875 3259.310937" transform="matrix(.1 0 0 -.1 0 361.31)" fill="none" stroke-width="7.97" stroke-linejoin="round" stroke="#000" stroke-miterlimit="10" />
  <path d="M 107.921875 347.652344 L 109.984375 342.1875 L 107.921875 343.992188 L 105.855469 342.1875" />
  <path d="M 1079.21875 136.576562 L 1099.84375 191.225 L 1079.21875 173.178125 L 1058.554688 191.225 Z M 1079.21875 136.576562" transform="matrix(.1 0 0 -.1 0 361.31)" fill="none" stroke-width="7.97" stroke="#000" stroke-miterlimit="10" />
  <path d="M 107.921875 31.515625 L 105.855469 36.984375 L 107.921875 35.179688 L 109.984375 36.984375" />
  <path d="M 1079.21875 3297.94375 L 1058.554688 3243.25625 L 1079.21875 3261.303125 L 1099.84375 3243.25625 Z M 1079.21875 3297.94375" transform="matrix(.1 0 0 -.1 0 361.31)" fill="none" stroke-width="7.97" stroke="#000" stroke-miterlimit="10" />
  <path d="M98.820313 18.5L98.765625 18.957031 99.691406 18.957031 98.929688 23.117188C98.820313 23.710938 98.519531 25.828125 97.882813 25.828125 97.460938 25.828125 97.839844 24.835938 97.167969 24.835938 96.878906 24.835938 96.710938 25.082031 96.710938 25.394531 96.710938 25.785156 96.992188 26.1875 97.695313 26.1875 99.222656 26.1875 99.734375 23.6875 99.925781 22.730469L100.617188 18.957031 101.652344 18.957031 101.730469 18.5 100.671875 18.5 100.816406 17.707031C101.007813 16.761719 101.351563 16.101563 101.953125 16.101563 102.179688 16.101563 102.167969 16.402344 102.199219 16.65625 102.234375 16.894531 102.34375 17.082031 102.613281 17.082031 102.890625 17.082031 103.105469 16.914063 103.105469 16.582031 103.105469 16.101563 102.734375 15.777344 102.101563 15.777344 101.09375 15.777344 100.640625 16.289063 100.339844 16.816406 100.070313 17.273438 99.925781 17.875 99.78125 18.5L98.820313 18.5M105.480469 20.855469C105.480469 23.308594 106.652344 25.058594 108.445313 25.984375L108.628906 25.671875C106.996094 24.601563 106.394531 23.097656 106.394531 20.855469 106.394531 18.632813 106.996094 17.136719 108.628906 16.054688L108.445313 15.765625C106.652344 16.679688 105.480469 18.421875 105.480469 20.855469M112.515625 20.386719L112.480469 20.386719 112.347656 19.816406C112.191406 19.214844 111.976563 18.722656 111.710938 18.410156L111.542969 18.410156 109.992188 18.589844 109.992188 18.925781C109.992188 18.925781 110.160156 18.890625 110.339844 18.890625 111.074219 18.878906 111.265625 19.179688 111.566406 20.117188L111.878906 21.132813 111.074219 22.304688C110.640625 22.929688 110.4375 22.941406 110.394531 22.941406 110.203125 22.941406 109.9375 22.796875 109.691406 22.796875 109.421875 22.796875 109.257813 23.039063 109.257813 23.261719 109.257813 23.542969 109.421875 23.808594 109.902344 23.808594 110.574219 23.808594 110.941406 23.285156 111.296875 22.703125L112.011719 21.546875 112.054688 21.546875 112.335938 22.671875C112.492188 23.398438 112.738281 23.820313 113.25 23.820313 114.007813 23.820313 114.476563 23.0625 114.800781 22.570313L114.566406 22.394531C114.265625 22.796875 114.054688 23.019531 113.765625 23.019531 113.417969 23.019531 113.195313 22.605469 112.882813 21.578125L112.648438 20.820313 113.328125 19.738281C113.519531 19.425781 113.675781 19.269531 113.929688 19.269531 114.078125 19.269531 114.332031 19.382813 114.511719 19.382813 114.8125 19.382813 115.023438 19.125 115.023438 18.855469 115.023438 18.542969 114.890625 18.367188 114.46875 18.367188 113.808594 18.367188 113.363281 18.914063 113.0625 19.449219L112.515625 20.386719M118.792969 20.855469C118.792969 18.421875 117.621094 16.679688 115.824219 15.765625L115.644531 16.054688C117.273438 17.136719 117.878906 18.632813 117.878906 20.855469 117.878906 23.097656 117.273438 24.601563 115.644531 25.671875L115.824219 25.984375C117.621094 25.058594 118.792969 23.308594 118.792969 20.855469M103.421875 197.375C103.421875 195.074219 102.417969 193.746094 100.976563 193.746094 99.359375 193.746094 98.5 195.222656 98.5 197.339844 98.5 199.316406 99.160156 201.03125 100.957031 201.03125 102.707031 201.03125 103.421875 199.28125 103.421875 197.375zM102.339844 197.441406C102.339844 199.582031 101.839844 200.628906 100.957031 200.628906 100.0625 200.628906 99.570313 199.558594 99.570313 197.394531 99.570313 195.1875 100.0625 194.128906 100.945313 194.128906 101.859375 194.128906 102.339844 195.175781 102.339844 197.441406" />
  <path d="M 736.132813 123.959375 L 743.046875 218.56875 L 749.960938 309.389062 L 756.914063 396.420312 L 763.828125 479.81875 L 770.78125 559.623437 L 777.695313 635.9125 L 784.648438 708.803125 L 791.5625 778.334375 L 798.476563 844.584375 L 805.429688 907.63125 L 812.34375 967.553125 L 819.296875 1024.467187 L 826.210938 1078.4125 L 833.164063 1129.50625 L 840.078125 1177.7875 L 846.992188 1223.334375 L 853.945313 1266.264062 L 860.859375 1306.615625 L 867.8125 1344.50625 L 874.726563 1379.975 L 881.640625 1413.139062 L 888.59375 1444.0375 L 895.507813 1472.748437 L 902.460938 1499.389062 L 909.375 1524.0375 L 916.328125 1546.732812 L 923.242188 1567.592187 L 930.195313 1586.69375 L 937.109375 1604.076562 L 944.023438 1619.81875 L 950.976563 1634.076562 L 957.890625 1646.810937 L 964.84375 1658.217187 L 971.757813 1668.334375 L 978.671875 1677.201562 L 985.625 1684.935937 L 992.539063 1691.576562 L 999.492188 1697.240625 L 1006.40625 1702.045312 L 1013.359375 1705.990625 L 1020.273438 1709.19375 L 1027.1875 1711.69375 L 1034.140625 1713.646875 L 1041.054688 1715.053125 L 1048.007813 1716.06875 L 1054.921875 1716.69375 L 1061.875 1717.045312 L 1068.789063 1717.201562 L 1075.703125 1717.240625 L 1082.65625 1717.240625 L 1089.570313 1717.279687 L 1096.523438 1717.435937 L 1103.4375 1717.826562 L 1110.351563 1718.451562 L 1117.304688 1719.428125 L 1124.21875 1720.834375 L 1131.171875 1722.7875 L 1138.085938 1725.326562 L 1145.039063 1728.490625 L 1151.953125 1732.435937 L 1158.90625 1737.201562 L 1165.820313 1742.904687 L 1172.734375 1749.545312 L 1179.6875 1757.279687 L 1186.601563 1766.146875 L 1193.554688 1776.225 L 1200.46875 1787.592187 L 1207.382813 1800.365625 L 1214.335938 1814.623437 L 1221.25 1830.365625 L 1228.203125 1847.748437 L 1235.117188 1866.810937 L 1242.03125 1887.670312 L 1248.984375 1910.365625 L 1255.9375 1934.975 L 1262.851563 1961.615625 L 1269.765625 1990.326562 L 1276.71875 2021.225 L 1283.632813 2054.389062 L 1290.585938 2089.81875 L 1297.5 2127.709375 L 1304.414063 2168.021875 L 1311.367188 2210.951562 L 1318.28125 2256.498437 L 1325.234375 2304.779687 L 1332.148438 2355.834375 L 1339.101563 2409.779687 L 1346.015625 2466.654687 L 1352.96875 2526.615625 L 1359.882813 2589.623437 L 1366.796875 2655.873437 L 1373.75 2725.365625 L 1380.664063 2798.217187 L 1387.617188 2874.50625 L 1394.53125 2954.310937 L 1401.445313 3037.670312 L 1408.398438 3124.701562 L 1415.3125 3215.482812 L 1422.265625 3310.092187" transform="matrix(.1 0 0 -.1 0 361.31)" fill="none" stroke-width="7.97" stroke-linejoin="round" stroke="#109e24" stroke-miterlimit="10" />
  <path d="M147.320313 44.5L147.265625 44.957031 148.191406 44.957031 147.429688 49.117188C147.320313 49.710938 147.019531 51.828125 146.382813 51.828125 145.960938 51.828125 146.339844 50.835938 145.667969 50.835938 145.378906 50.835938 145.210938 51.082031 145.210938 51.394531 145.210938 51.785156 145.492188 52.1875 146.195313 52.1875 147.722656 52.1875 148.234375 49.6875 148.425781 48.730469L149.117188 44.957031 150.152344 44.957031 150.230469 44.5 149.171875 44.5 149.316406 43.707031C149.507813 42.761719 149.851563 42.101563 150.453125 42.101563 150.679688 42.101563 150.667969 42.402344 150.699219 42.65625 150.734375 42.894531 150.84375 43.082031 151.113281 43.082031 151.390625 43.082031 151.605469 42.914063 151.605469 42.582031 151.605469 42.101563 151.234375 41.777344 150.601563 41.777344 149.59375 41.777344 149.140625 42.289063 148.839844 42.816406 148.570313 43.273438 148.425781 43.875 148.28125 44.5L147.320313 44.5M154.078125 46.855469C154.078125 49.308594 155.253906 51.058594 157.046875 51.984375L157.226563 51.671875C155.597656 50.601563 154.996094 49.097656 154.996094 46.855469 154.996094 44.632813 155.597656 43.136719 157.226563 42.054688L157.046875 41.765625C155.253906 42.679688 154.078125 44.421875 154.078125 46.855469M161.113281 46.386719L161.082031 46.386719 160.945313 45.816406C160.789063 45.214844 160.578125 44.722656 160.3125 44.410156L160.144531 44.410156 158.59375 44.589844 158.59375 44.925781C158.59375 44.925781 158.761719 44.890625 158.9375 44.890625 159.675781 44.878906 159.863281 45.179688 160.164063 46.117188L160.476563 47.132813 159.675781 48.304688C159.242188 48.929688 159.039063 48.941406 158.996094 48.941406 158.804688 48.941406 158.539063 48.796875 158.292969 48.796875 158.023438 48.796875 157.855469 49.039063 157.855469 49.261719 157.855469 49.542969 158.023438 49.808594 158.503906 49.808594 159.171875 49.808594 159.539063 49.285156 159.898438 48.703125L160.613281 47.546875 160.65625 47.546875 160.9375 48.671875C161.09375 49.398438 161.339844 49.820313 161.851563 49.820313 162.609375 49.820313 163.078125 49.0625 163.402344 48.570313L163.167969 48.394531C162.867188 48.796875 162.652344 49.019531 162.363281 49.019531 162.015625 49.019531 161.796875 48.605469 161.484375 47.578125L161.246094 46.820313 161.929688 45.738281C162.117188 45.425781 162.273438 45.269531 162.53125 45.269531 162.675781 45.269531 162.933594 45.382813 163.109375 45.382813 163.414063 45.382813 163.625 45.125 163.625 44.855469 163.625 44.542969 163.492188 44.367188 163.066406 44.367188 162.40625 44.367188 161.964844 44.914063 161.660156 45.449219L161.113281 46.386719M167.292969 46.855469C167.292969 44.421875 166.121094 42.679688 164.324219 41.765625L164.144531 42.054688C165.773438 43.136719 166.378906 44.632813 166.378906 46.855469 166.378906 49.097656 165.773438 50.601563 164.144531 51.671875L164.324219 51.984375C166.121094 51.058594 167.292969 49.308594 167.292969 46.855469M178.339844 46.0625L178.339844 45.304688 171.691406 45.304688 171.691406 46.0625zM178.339844 48.339844L178.339844 47.589844 171.691406 47.589844 171.691406 48.339844 178.339844 48.339844M185.613281 46.386719L185.582031 46.386719 185.445313 45.816406C185.289063 45.214844 185.078125 44.722656 184.8125 44.410156L184.644531 44.410156 183.09375 44.589844 183.09375 44.925781C183.09375 44.925781 183.261719 44.890625 183.4375 44.890625 184.175781 44.878906 184.363281 45.179688 184.664063 46.117188L184.976563 47.132813 184.175781 48.304688C183.742188 48.929688 183.539063 48.941406 183.496094 48.941406 183.304688 48.941406 183.039063 48.796875 182.792969 48.796875 182.523438 48.796875 182.355469 49.039063 182.355469 49.261719 182.355469 49.542969 182.523438 49.808594 183.003906 49.808594 183.671875 49.808594 184.039063 49.285156 184.398438 48.703125L185.113281 47.546875 185.15625 47.546875 185.4375 48.671875C185.59375 49.398438 185.839844 49.820313 186.351563 49.820313 187.109375 49.820313 187.578125 49.0625 187.902344 48.570313L187.667969 48.394531C187.367188 48.796875 187.152344 49.019531 186.863281 49.019531 186.515625 49.019531 186.296875 48.605469 185.984375 47.578125L185.746094 46.820313 186.429688 45.738281C186.617188 45.425781 186.773438 45.269531 187.03125 45.269531 187.175781 45.269531 187.433594 45.382813 187.609375 45.382813 187.914063 45.382813 188.125 45.125 188.125 44.855469 188.125 44.542969 187.992188 44.367188 187.566406 44.367188 186.90625 44.367188 186.464844 44.914063 186.160156 45.449219L185.613281 46.386719M189.355469 41.65625C189.613281 41.238281 189.953125 41.03125 190.414063 41.03125 190.90625 41.03125 191.257813 41.289063 191.257813 41.773438 191.257813 42.429688 190.65625 42.832031 190.101563 42.832031L189.9375 42.832031 189.9375 43.199219 190.109375 43.199219C190.921875 43.199219 191.585938 43.652344 191.585938 44.363281 191.585938 45.171875 191.039063 45.382813 190.578125 45.382813 190.351563 45.382813 190.273438 45.34375 189.914063 45.171875 189.628906 45.007813 189.558594 44.960938 189.457031 44.960938 189.207031 44.960938 189.113281 45.179688 189.113281 45.351563 189.113281 45.578125 189.285156 45.8125 190.039063 45.8125 191.226563 45.8125 192.316406 45.296875 192.316406 44.144531 192.316406 43.386719 191.761719 42.964844 191.109375 42.792969L191.109375 42.753906C191.617188 42.429688 192.003906 42.132813 192.003906 41.570313 192.003906 40.933594 191.453125 40.480469 190.617188 40.480469 189.96875 40.480469 189.441406 40.839844 189.128906 41.546875L189.355469 41.65625" fill="#109e24" />
  <path d="M142.3125 62.222656C142.3125 60.8125 141.171875 59.671875 139.761719 59.671875 138.351563 59.671875 137.210938 60.8125 137.210938 62.222656 137.210938 63.632813 138.351563 64.773438 139.761719 64.773438 141.171875 64.773438 142.3125 63.632813 142.3125 62.222656zM126.390625 173.664063C126.390625 172.257813 125.25 171.113281 123.839844 171.113281 122.429688 171.113281 121.289063 172.257813 121.289063 173.664063 121.289063 175.074219 122.429688 176.214844 123.839844 176.214844 125.25 176.214844 126.390625 175.074219 126.390625 173.664063zM110.472656 189.585938C110.472656 188.175781 109.328125 187.035156 107.921875 187.035156 106.511719 187.035156 105.367188 188.175781 105.367188 189.585938 105.367188 190.992188 106.511719 192.136719 107.921875 192.136719 109.328125 192.136719 110.472656 190.992188 110.472656 189.585938zM94.550781 205.503906C94.550781 204.097656 93.410156 202.953125 92 202.953125 90.589844 202.953125 89.449219 204.097656 89.449219 205.503906 89.449219 206.914063 90.589844 208.058594 92 208.058594 93.410156 208.058594 94.550781 206.914063 94.550781 205.503906zM78.628906 316.949219C78.628906 315.539063 77.488281 314.398438 76.078125 314.398438 74.667969 314.398438 73.527344 315.539063 73.527344 316.949219 73.527344 318.359375 74.667969 319.5 76.078125 319.5 77.488281 319.5 78.628906 318.359375 78.628906 316.949219zM78.628906 316.949219" />
</svg>