<svg id="visual" viewBox="0 0 900 600" width="900" height="600" xmlns="http://www.w3.org/2000/svg" xmlns:xlink="http://www.w3.org/1999/xlink" version="1.1"><rect x="0" y="0" width="900" height="600" fill="#e8e8e8"></rect><path d="M0 431L21.5 425.8C43 420.7 86 410.3 128.8 403.5C171.7 396.7 214.3 393.3 257.2 389.8C300 386.3 343 382.7 385.8 380.8C428.7 379 471.3 379 514.2 387.7C557 396.3 600 413.7 642.8 421.7C685.7 429.7 728.3 428.3 771.2 421.8C814 415.3 857 403.7 878.5 397.8L900 392L900 601L878.5 601C857 601 814 601 771.2 601C728.3 601 685.7 601 642.8 601C600 601 557 601 514.2 601C471.3 601 428.7 601 385.8 601C343 601 300 601 257.2 601C214.3 601 171.7 601 128.8 601C86 601 43 601 21.5 601L0 601Z" fill="#20cd8d"></path><path d="M0 414L21.5 420.8C43 427.7 86 441.3 128.8 443.2C171.7 445 214.3 435 257.2 435.5C300 436 343 447 385.8 453.5C428.7 460 471.3 462 514.2 451.7C557 441.3 600 418.7 642.8 409.2C685.7 399.7 728.3 403.3 771.2 404.5C814 405.7 857 404.3 878.5 403.7L900 403L900 601L878.5 601C857 601 814 601 771.2 601C728.3 601 685.7 601 642.8 601C600 601 557 601 514.2 601C471.3 601 428.7 601 385.8 601C343 601 300 601 257.2 601C214.3 601 171.7 601 128.8 601C86 601 43 601 21.5 601L0 601Z" fill="#28d595"></path><path d="M0 501L21.5 492.8C43 484.7 86 468.3 128.8 464C171.7 459.7 214.3 467.3 257.2 474C300 480.7 343 486.3 385.8 483.7C428.7 481 471.3 470 514.2 461.7C557 453.3 600 447.7 642.8 444.7C685.7 441.7 728.3 441.3 771.2 440.8C814 440.3 857 439.7 878.5 439.3L900 439L900 601L878.5 601C857 601 814 601 771.2 601C728.3 601 685.7 601 642.8 601C600 601 557 601 514.2 601C471.3 601 428.7 601 385.8 601C343 601 300 601 257.2 601C214.3 601 171.7 601 128.8 601C86 601 43 601 21.5 601L0 601Z" fill="#2fde9d"></path><path d="M0 487L21.5 493.7C43 500.3 86 513.7 128.8 513.3C171.7 513 214.3 499 257.2 496.5C300 494 343 503 385.8 509C428.7 515 471.3 518 514.2 521.2C557 524.3 600 527.7 642.8 527.8C685.7 528 728.3 525 771.2 523.7C814 522.3 857 522.7 878.5 522.8L900 523L900 601L878.5 601C857 601 814 601 771.2 601C728.3 601 685.7 601 642.8 601C600 601 557 601 514.2 601C471.3 601 428.7 601 385.8 601C343 601 300 601 257.2 601C214.3 601 171.7 601 128.8 601C86 601 43 601 21.5 601L0 601Z" fill="#36e6a5"></path><path d="M0 573L21.5 565.8C43 558.7 86 544.3 128.8 540.5C171.7 536.7 214.3 543.3 257.2 543.5C300 543.7 343 537.3 385.8 540.8C428.7 544.3 471.3 557.7 514.2 557.5C557 557.3 600 543.7 642.8 542.7C685.7 541.7 728.3 553.3 771.2 552.5C814 551.7 857 538.3 878.5 531.7L900 525L900 601L878.5 601C857 601 814 601 771.2 601C728.3 601 685.7 601 642.8 601C600 601 557 601 514.2 601C471.3 601 428.7 601 385.8 601C343 601 300 601 257.2 601C214.3 601 171.7 601 128.8 601C86 601 43 601 21.5 601L0 601Z" fill="#3cefae"></path></svg>